# Blender v2.79 (sub 0) OBJ File: ''
# www.blender.org
o Torus
v 1.250000 0.433013 0.000000
v 0.750000 0.433013 0.000000
v 0.750000 -0.433013 0.000000
v 1.250000 -0.433013 0.000000
v 1.234610 0.433013 -0.195543
v 0.740766 0.433013 -0.117326
v 0.740766 -0.433013 -0.117326
v 1.234610 -0.433013 -0.195543
v 1.188821 0.433013 -0.386271
v 0.713292 0.433013 -0.231763
v 0.713292 -0.433013 -0.231763
v 1.188821 -0.433013 -0.386271
v 1.113758 0.433013 -0.567488
v 0.668255 0.433013 -0.340493
v 0.668255 -0.433013 -0.340493
v 1.113758 -0.433013 -0.567488
v 1.011271 0.433013 -0.734732
v 0.606763 0.433013 -0.440839
v 0.606763 -0.433013 -0.440839
v 1.011271 -0.433013 -0.734732
v 0.883883 0.433013 -0.883884
v 0.530330 0.433013 -0.530330
v 0.530330 -0.433013 -0.530330
v 0.883883 -0.433013 -0.883884
v 0.734731 0.433013 -1.011271
v 0.440839 0.433013 -0.606763
v 0.440839 -0.433013 -0.606763
v 0.734731 -0.433013 -1.011271
v 0.567488 0.433013 -1.113758
v 0.340493 0.433013 -0.668255
v 0.340493 -0.433013 -0.668255
v 0.567488 -0.433013 -1.113758
v 0.386271 0.433013 -1.188821
v 0.231763 0.433013 -0.713292
v 0.231763 -0.433013 -0.713292
v 0.386271 -0.433013 -1.188821
v 0.195543 0.433013 -1.234610
v 0.117326 0.433013 -0.740766
v 0.117326 -0.433013 -0.740766
v 0.195543 -0.433013 -1.234610
v 0.000000 0.433013 -1.250000
v 0.000000 0.433013 -0.750000
v 0.000000 -0.433013 -0.750000
v 0.000000 -0.433013 -1.250000
v -0.195543 0.433013 -1.234610
v -0.117326 0.433013 -0.740766
v -0.117326 -0.433013 -0.740766
v -0.195543 -0.433013 -1.234610
v -0.386271 0.433013 -1.188821
v -0.231763 0.433013 -0.713292
v -0.231763 -0.433013 -0.713292
v -0.386271 -0.433013 -1.188821
v -0.567488 0.433013 -1.113758
v -0.340493 0.433013 -0.668255
v -0.340493 -0.433013 -0.668255
v -0.567488 -0.433013 -1.113758
v -0.734732 0.433013 -1.011271
v -0.440839 0.433013 -0.606763
v -0.440839 -0.433013 -0.606763
v -0.734732 -0.433013 -1.011271
v -0.883884 0.433013 -0.883883
v -0.530330 0.433013 -0.530330
v -0.530330 -0.433013 -0.530330
v -0.883884 -0.433013 -0.883883
v -1.011271 0.433013 -0.734731
v -0.606763 0.433013 -0.440839
v -0.606763 -0.433013 -0.440839
v -1.011271 -0.433013 -0.734731
v -1.113758 0.433013 -0.567488
v -0.668255 0.433013 -0.340493
v -0.668255 -0.433013 -0.340493
v -1.113758 -0.433013 -0.567488
v -1.188821 0.433013 -0.386271
v -0.713292 0.433013 -0.231763
v -0.713292 -0.433013 -0.231763
v -1.188821 -0.433013 -0.386271
v -1.234610 0.433013 -0.195543
v -0.740766 0.433013 -0.117326
v -0.740766 -0.433013 -0.117326
v -1.234610 -0.433013 -0.195543
v -1.250000 0.433013 -0.000000
v -0.750000 0.433013 -0.000000
v -0.750000 -0.433013 -0.000000
v -1.250000 -0.433013 -0.000000
v -1.234611 0.433013 0.195542
v -0.740766 0.433013 0.117325
v -0.740766 -0.433013 0.117325
v -1.234611 -0.433013 0.195542
v -1.188821 0.433013 0.386271
v -0.713292 0.433013 0.231762
v -0.713292 -0.433013 0.231762
v -1.188821 -0.433013 0.386271
v -1.113758 0.433013 0.567488
v -0.668255 0.433013 0.340493
v -0.668255 -0.433013 0.340493
v -1.113758 -0.433013 0.567488
v -1.011271 0.433013 0.734731
v -0.606763 0.433013 0.440839
v -0.606763 -0.433013 0.440839
v -1.011271 -0.433013 0.734731
v -0.883884 0.433013 0.883883
v -0.530330 0.433013 0.530330
v -0.530330 -0.433013 0.530330
v -0.883884 -0.433013 0.883883
v -0.734732 0.433013 1.011271
v -0.440839 0.433013 0.606763
v -0.440839 -0.433013 0.606763
v -0.734732 -0.433013 1.011271
v -0.567488 0.433013 1.113758
v -0.340493 0.433013 0.668255
v -0.340493 -0.433013 0.668255
v -0.567488 -0.433013 1.113758
v -0.386271 0.433013 1.188821
v -0.231763 0.433013 0.713292
v -0.231763 -0.433013 0.713292
v -0.386271 -0.433013 1.188821
v -0.195543 0.433013 1.234610
v -0.117326 0.433013 0.740766
v -0.117326 -0.433013 0.740766
v -0.195543 -0.433013 1.234610
v 0.000000 0.433013 1.250000
v 0.000000 0.433013 0.750000
v 0.000000 -0.433013 0.750000
v 0.000000 -0.433013 1.250000
v 0.195543 0.433013 1.234610
v 0.117326 0.433013 0.740766
v 0.117326 -0.433013 0.740766
v 0.195543 -0.433013 1.234610
v 0.386271 0.433013 1.188821
v 0.231763 0.433013 0.713292
v 0.231763 -0.433013 0.713292
v 0.386271 -0.433013 1.188821
v 0.567488 0.433013 1.113758
v 0.340493 0.433013 0.668255
v 0.340493 -0.433013 0.668255
v 0.567488 -0.433013 1.113758
v 0.734731 0.433013 1.011272
v 0.440839 0.433013 0.606763
v 0.440839 -0.433013 0.606763
v 0.734731 -0.433013 1.011272
v 0.883883 0.433013 0.883884
v 0.530330 0.433013 0.530330
v 0.530330 -0.433013 0.530330
v 0.883883 -0.433013 0.883884
v 1.011271 0.433013 0.734732
v 0.606763 0.433013 0.440839
v 0.606763 -0.433013 0.440839
v 1.011271 -0.433013 0.734732
v 1.113758 0.433013 0.567489
v 0.668255 0.433013 0.340493
v 0.668255 -0.433013 0.340493
v 1.113758 -0.433013 0.567489
v 1.188820 0.433013 0.386272
v 0.713292 0.433013 0.231763
v 0.713292 -0.433013 0.231763
v 1.188820 -0.433013 0.386272
v 1.234610 0.433013 0.195543
v 0.740766 0.433013 0.117326
v 0.740766 -0.433013 0.117326
v 1.234610 -0.433013 0.195543
v -1.234610 0.433013 -0.195543
v -1.188821 0.433013 -0.386271
v -1.234610 -0.433013 -0.195543
v -1.188821 -0.433013 -0.386271
vt 0.550000 0.666667
vt 0.525000 0.833333
vt 0.525000 0.666667
vt 0.525000 0.166667
vt 0.550000 0.333333
vt 0.525000 0.333333
vt 0.575000 0.833333
vt 0.550000 0.833333
vt 0.575000 0.166667
vt 0.550000 0.166667
vt 0.600000 0.666667
vt 0.575000 0.666667
vt 0.600000 0.166667
vt 0.575000 0.333333
vt 0.625000 0.666667
vt 0.600000 0.833333
vt 0.625000 0.166667
vt 0.600000 0.333333
vt 0.650000 0.666667
vt 0.625000 0.833333
vt 0.650000 0.166667
vt 0.625000 0.333333
vt 0.675000 0.833333
vt 0.650000 0.833333
vt 0.650000 0.333333
vt 0.675000 0.166667
vt 0.700000 0.666667
vt 0.675000 0.666667
vt 0.700000 0.333333
vt 0.675000 0.333333
vt 0.725000 0.833333
vt 0.700000 0.833333
vt 0.725000 0.166667
vt 0.700000 0.166667
vt 0.750000 0.666667
vt 0.725000 0.666667
vt 0.750000 0.333333
vt 0.725000 0.333333
vt 0.775000 0.833333
vt 0.750000 0.833333
vt 0.775000 0.166667
vt 0.750000 0.166667
vt 0.775000 0.666667
vt 0.800000 0.833333
vt 0.800000 0.166667
vt 0.775000 0.333333
vt 0.800000 0.666667
vt 0.825000 0.833333
vt 0.825000 0.166667
vt 0.800000 0.333333
vt 0.850000 0.666667
vt 0.825000 0.666667
vt 0.850000 0.166667
vt 0.825000 0.333333
vt 0.875000 0.666667
vt 0.850000 0.833333
vt 0.875000 0.166667
vt 0.850000 0.333333
vt 0.900000 0.666667
vt 0.875000 0.833333
vt 0.900000 0.333333
vt 0.875000 0.333333
vt 0.925000 0.666667
vt 0.900000 0.833333
vt 0.925000 0.166667
vt 0.900000 0.166667
vt 0.950000 0.666667
vt 0.925000 0.833333
vt 0.950000 0.333333
vt 0.925000 0.333333
vt 0.975000 0.833333
vt 0.950000 0.833333
vt 0.975000 0.166667
vt 0.950000 0.166667
vt 1.000000 0.666667
vt 0.975000 0.666667
vt 1.000000 0.333333
vt 0.975000 0.333333
vt 0.000000 0.666667
vt 0.025000 0.833333
vt 0.000000 0.833333
vt 0.025000 0.166667
vt 0.000000 0.333333
vt 0.000000 0.166667
vt 0.050000 0.666667
vt 0.025000 0.666667
vt 0.050000 0.166667
vt 0.025000 0.333333
vt 0.075000 0.666667
vt 0.050000 0.833333
vt 0.075000 0.166667
vt 0.050000 0.333333
vt 0.100000 0.833333
vt 0.075000 0.833333
vt 0.100000 0.333333
vt 0.075000 0.333333
vt 0.125000 0.666667
vt 0.100000 0.666667
vt 0.125000 0.166667
vt 0.100000 0.166667
vt 0.150000 0.833333
vt 0.125000 0.833333
vt 0.150000 0.166667
vt 0.125000 0.333333
vt 0.150000 0.666667
vt 0.175000 0.833333
vt 0.450000 0.166667
vt 0.475000 0.333333
vt 0.450000 0.333333
vt 0.175000 0.166667
vt 0.150000 0.333333
vt 0.200000 0.666667
vt 0.175000 0.666667
vt 0.200000 0.166667
vt 0.175000 0.333333
vt 0.225000 0.666667
vt 0.200000 0.833333
vt 0.225000 0.166667
vt 0.200000 0.333333
vt 0.250000 0.666667
vt 0.225000 0.833333
vt 0.250000 0.333333
vt 0.225000 0.333333
vt 0.275000 0.666667
vt 0.250000 0.833333
vt 0.250000 0.166667
vt 0.275000 0.333333
vt 0.300000 0.666667
vt 0.275000 0.833333
vt 0.275000 0.166667
vt 0.300000 0.333333
vt 0.325000 0.833333
vt 0.300000 0.833333
vt 0.325000 0.166667
vt 0.300000 0.166667
vt 0.350000 0.666667
vt 0.325000 0.666667
vt 0.350000 0.333333
vt 0.325000 0.333333
vt 0.375000 0.833333
vt 0.350000 0.833333
vt 0.375000 0.166667
vt 0.350000 0.166667
vt 0.375000 0.666667
vt 0.400000 0.833333
vt 0.400000 0.166667
vt 0.375000 0.333333
vt 0.425000 0.666667
vt 0.400000 0.666667
vt 0.425000 0.333333
vt 0.400000 0.333333
vt 0.450000 0.666667
vt 0.425000 0.833333
vt 0.425000 0.166667
vt 0.475000 0.666667
vt 0.450000 0.833333
vt 0.500000 0.666667
vt 0.475000 0.833333
vt 0.475000 0.166667
vt 0.500000 0.333333
vt 0.500000 0.833333
vt 0.500000 0.166667
vt 0.975000 0.666667
vt 1.000000 0.333333
vt 1.000000 0.666667
vt 1.000000 0.833333
vt 1.000000 0.166667
vt 0.975000 0.333333
vn 0.0000 1.0000 0.0000
vn 0.0000 -1.0000 -0.0000
vn 0.7604 0.0000 -0.6494
vn 0.8526 0.0000 -0.5225
vn 0.9239 0.0000 -0.3827
vn 0.0000 0.0000 1.0000
vn 0.6494 0.0000 -0.7604
vn 0.5225 0.0000 -0.8526
vn 0.3827 0.0000 -0.9239
vn 0.2334 0.0000 -0.9724
vn 0.0785 0.0000 -0.9969
vn -0.0785 0.0000 -0.9969
vn -0.2334 0.0000 -0.9724
vn -0.3827 0.0000 -0.9239
vn -0.5225 0.0000 -0.8526
vn -0.6494 0.0000 -0.7604
vn -0.7604 0.0000 -0.6494
vn -0.8526 0.0000 -0.5225
vn -0.9239 0.0000 -0.3827
vn -0.9724 0.0000 -0.2334
vn -0.9969 0.0000 -0.0785
vn -0.9969 0.0000 0.0785
vn -0.9724 0.0000 0.2334
vn -0.9239 0.0000 0.3827
vn -0.8526 0.0000 0.5225
vn -0.7604 0.0000 0.6494
vn -0.6494 0.0000 0.7604
vn -0.5225 0.0000 0.8526
vn -0.3827 0.0000 0.9239
vn -0.2334 0.0000 0.9724
vn -0.0785 0.0000 0.9969
vn 0.0785 0.0000 0.9969
vn 0.2334 0.0000 0.9724
vn 0.3827 0.0000 0.9239
vn 0.5225 0.0000 0.8526
vn 0.6494 0.0000 0.7604
vn 0.7604 0.0000 0.6494
vn 0.8526 0.0000 0.5225
vn 0.9239 0.0000 0.3827
vn 0.9724 0.0000 0.2334
vn 0.9969 0.0000 0.0785
vn 0.9969 0.0000 -0.0785
vn 0.9724 0.0000 -0.2334
s off
f 5/1/1 2/2/1 1/3/1
f 3/4/2 8/5/2 4/6/2
f 5/1/1 10/7/1 6/8/1
f 11/9/2 8/5/2 7/10/2
f 13/11/1 10/7/1 9/12/1
f 15/13/2 12/14/2 11/9/2
f 17/15/1 14/16/1 13/11/1
f 19/17/2 16/18/2 15/13/2
f 21/19/1 18/20/1 17/15/1
f 23/21/2 20/22/2 19/17/2
f 21/19/1 26/23/1 22/24/1
f 21/19/3 20/22/3 24/25/3
f 27/26/2 24/25/2 23/21/2
f 29/27/1 26/23/1 25/28/1
f 17/15/4 16/18/4 20/22/4
f 12/14/5 13/11/5 9/12/5
f 27/26/2 32/29/2 28/30/2
f 29/27/1 34/31/1 30/32/1
f 35/33/2 32/29/2 31/34/2
f 37/35/1 34/31/1 33/36/1
f 35/33/2 40/37/2 36/38/2
f 37/35/1 42/39/1 38/40/1
f 43/41/2 40/37/2 39/42/2
f 41/43/1 46/44/1 42/39/1
f 47/45/2 44/46/2 43/41/2
f 45/47/1 50/48/1 46/44/1
f 51/49/2 48/50/2 47/45/2
f 53/51/1 50/48/1 49/52/1
f 55/53/2 52/54/2 51/49/2
f 57/55/1 54/56/1 53/51/1
f 59/57/2 56/58/2 55/53/2
f 61/59/1 58/60/1 57/55/1
f 59/57/2 64/61/2 60/62/2
f 65/63/1 62/64/1 61/59/1
f 67/65/2 64/61/2 63/66/2
f 69/67/1 66/68/1 65/63/1
f 67/65/2 72/69/2 68/70/2
f 69/67/1 74/71/1 70/72/1
f 75/73/2 72/69/2 71/74/2
f 161/75/1 74/71/1 162/76/1
f 75/73/2 163/77/2 164/78/2
f 161/79/1 82/80/1 78/81/1
f 83/82/2 163/83/2 79/84/2
f 85/85/1 82/80/1 81/86/1
f 87/87/2 84/88/2 83/82/2
f 89/89/1 86/90/1 85/85/1
f 91/91/2 88/92/2 87/87/2
f 89/89/1 94/93/1 90/94/1
f 91/91/2 96/95/2 92/96/2
f 97/97/1 94/93/1 93/98/1
f 99/99/2 96/95/2 95/100/2
f 97/97/1 102/101/1 98/102/1
f 103/103/2 100/104/2 99/99/2
f 101/105/1 106/106/1 102/101/1
f 151/107/2 156/108/2 152/109/2
f 107/110/2 104/111/2 103/103/2
f 109/112/1 106/106/1 105/113/1
f 111/114/2 108/115/2 107/110/2
f 113/116/1 110/117/1 109/112/1
f 115/118/2 112/119/2 111/114/2
f 117/120/1 114/121/1 113/116/1
f 115/118/2 120/122/2 116/123/2
f 121/124/1 118/125/1 117/120/1
f 119/126/2 124/127/2 120/122/2
f 125/128/1 122/129/1 121/124/1
f 123/130/2 128/131/2 124/127/2
f 125/128/1 130/132/1 126/133/1
f 131/134/2 128/131/2 127/135/2
f 133/136/1 130/132/1 129/137/1
f 131/134/2 136/138/2 132/139/2
f 133/136/1 138/140/1 134/141/1
f 139/142/2 136/138/2 135/143/2
f 137/144/1 142/145/1 138/140/1
f 143/146/2 140/147/2 139/142/2
f 145/148/1 142/145/1 141/149/1
f 143/146/2 148/150/2 144/151/2
f 149/152/1 146/153/1 145/148/1
f 147/154/2 152/109/2 148/150/2
f 153/155/1 150/156/1 149/152/1
f 157/157/1 154/158/1 153/155/1
f 155/159/2 160/160/2 156/108/2
f 1/3/1 158/161/1 157/157/1
f 3/4/2 160/160/2 159/162/2
f 73/163/6 161/75/6 162/76/6
f 80/164/6 164/78/6 163/77/6
f 25/28/7 24/25/7 28/30/7
f 25/28/8 32/29/8 29/27/8
f 33/36/9 32/29/9 36/38/9
f 37/35/10 36/38/10 40/37/10
f 41/43/11 40/37/11 44/46/11
f 45/47/12 44/46/12 48/50/12
f 49/52/13 48/50/13 52/54/13
f 53/51/14 52/54/14 56/58/14
f 53/51/15 60/62/15 57/55/15
f 57/55/16 64/61/16 61/59/16
f 65/63/17 64/61/17 68/70/17
f 69/67/18 68/70/18 72/69/18
f 162/76/19 72/69/19 164/78/19
f 73/163/20 80/164/20 77/165/20
f 81/86/21 163/83/21 84/88/21
f 85/85/22 84/88/22 88/92/22
f 89/89/23 88/92/23 92/96/23
f 93/98/24 92/96/24 96/95/24
f 97/97/25 96/95/25 100/104/25
f 97/97/26 104/111/26 101/105/26
f 101/105/27 108/115/27 105/113/27
f 105/113/28 112/119/28 109/112/28
f 113/116/29 112/119/29 116/123/29
f 117/120/30 116/123/30 120/122/30
f 117/120/31 124/127/31 121/124/31
f 121/124/32 128/131/32 125/128/32
f 129/137/33 128/131/33 132/139/33
f 133/136/34 132/139/34 136/138/34
f 133/136/35 140/147/35 137/144/35
f 137/144/36 144/151/36 141/149/36
f 145/148/37 144/151/37 148/150/37
f 149/152/38 148/150/38 152/109/38
f 152/109/39 153/155/39 149/152/39
f 153/155/40 160/160/40 157/157/40
f 160/160/41 1/3/41 157/157/41
f 5/1/42 4/6/42 8/5/42
f 5/1/43 12/14/43 9/12/43
f 87/87/42 82/80/42 86/90/42
f 83/82/41 78/81/41 82/80/41
f 75/73/40 78/81/40 79/84/40
f 75/73/39 70/72/39 74/71/39
f 71/74/38 66/68/38 70/72/38
f 67/65/37 62/64/37 66/68/37
f 59/57/36 62/64/36 63/66/36
f 59/57/35 54/56/35 58/60/35
f 87/87/43 90/94/43 91/91/43
f 91/91/5 94/93/5 95/100/5
f 95/100/4 98/102/4 99/99/4
f 103/103/3 98/102/3 102/101/3
f 103/103/7 106/106/7 107/110/7
f 107/110/8 110/117/8 111/114/8
f 111/114/9 114/121/9 115/118/9
f 119/126/10 114/121/10 118/125/10
f 119/126/11 122/129/11 123/130/11
f 123/130/12 126/133/12 127/135/12
f 127/135/13 130/132/13 131/134/13
f 135/143/14 130/132/14 134/141/14
f 139/142/15 134/141/15 138/140/15
f 139/142/16 142/145/16 143/146/16
f 147/154/17 142/145/17 146/153/17
f 151/107/18 146/153/18 150/156/18
f 154/158/19 151/107/19 150/156/19
f 55/53/34 50/48/34 54/56/34
f 51/49/33 46/44/33 50/48/33
f 43/41/32 46/44/32 47/45/32
f 39/42/31 42/39/31 43/41/31
f 35/33/30 38/40/30 39/42/30
f 35/33/29 30/32/29 34/31/29
f 27/26/28 30/32/28 31/34/28
f 23/21/27 26/23/27 27/26/27
f 23/21/26 18/20/26 22/24/26
f 19/17/25 14/16/25 18/20/25
f 11/9/24 14/16/24 15/13/24
f 7/10/23 10/7/23 11/9/23
f 3/4/22 6/8/22 7/10/22
f 158/161/21 3/4/21 159/162/21
f 155/159/20 158/161/20 159/162/20
f 5/1/1 6/8/1 2/2/1
f 3/4/2 7/10/2 8/5/2
f 5/1/1 9/12/1 10/7/1
f 11/9/2 12/14/2 8/5/2
f 13/11/1 14/16/1 10/7/1
f 15/13/2 16/18/2 12/14/2
f 17/15/1 18/20/1 14/16/1
f 19/17/2 20/22/2 16/18/2
f 21/19/1 22/24/1 18/20/1
f 23/21/2 24/25/2 20/22/2
f 21/19/1 25/28/1 26/23/1
f 21/19/3 17/15/3 20/22/3
f 27/26/2 28/30/2 24/25/2
f 29/27/1 30/32/1 26/23/1
f 17/15/4 13/11/4 16/18/4
f 12/14/5 16/18/5 13/11/5
f 27/26/2 31/34/2 32/29/2
f 29/27/1 33/36/1 34/31/1
f 35/33/2 36/38/2 32/29/2
f 37/35/1 38/40/1 34/31/1
f 35/33/2 39/42/2 40/37/2
f 37/35/1 41/43/1 42/39/1
f 43/41/2 44/46/2 40/37/2
f 41/43/1 45/47/1 46/44/1
f 47/45/2 48/50/2 44/46/2
f 45/47/1 49/52/1 50/48/1
f 51/49/2 52/54/2 48/50/2
f 53/51/1 54/56/1 50/48/1
f 55/53/2 56/58/2 52/54/2
f 57/55/1 58/60/1 54/56/1
f 59/57/2 60/62/2 56/58/2
f 61/59/1 62/64/1 58/60/1
f 59/57/2 63/66/2 64/61/2
f 65/63/1 66/68/1 62/64/1
f 67/65/2 68/70/2 64/61/2
f 69/67/1 70/72/1 66/68/1
f 67/65/2 71/74/2 72/69/2
f 69/67/1 162/76/1 74/71/1
f 75/73/2 164/78/2 72/69/2
f 161/75/1 78/166/1 74/71/1
f 75/73/2 79/167/2 163/77/2
f 161/79/1 81/86/1 82/80/1
f 83/82/2 84/88/2 163/83/2
f 85/85/1 86/90/1 82/80/1
f 87/87/2 88/92/2 84/88/2
f 89/89/1 90/94/1 86/90/1
f 91/91/2 92/96/2 88/92/2
f 89/89/1 93/98/1 94/93/1
f 91/91/2 95/100/2 96/95/2
f 97/97/1 98/102/1 94/93/1
f 99/99/2 100/104/2 96/95/2
f 97/97/1 101/105/1 102/101/1
f 103/103/2 104/111/2 100/104/2
f 101/105/1 105/113/1 106/106/1
f 151/107/2 155/159/2 156/108/2
f 107/110/2 108/115/2 104/111/2
f 109/112/1 110/117/1 106/106/1
f 111/114/2 112/119/2 108/115/2
f 113/116/1 114/121/1 110/117/1
f 115/118/2 116/123/2 112/119/2
f 117/120/1 118/125/1 114/121/1
f 115/118/2 119/126/2 120/122/2
f 121/124/1 122/129/1 118/125/1
f 119/126/2 123/130/2 124/127/2
f 125/128/1 126/133/1 122/129/1
f 123/130/2 127/135/2 128/131/2
f 125/128/1 129/137/1 130/132/1
f 131/134/2 132/139/2 128/131/2
f 133/136/1 134/141/1 130/132/1
f 131/134/2 135/143/2 136/138/2
f 133/136/1 137/144/1 138/140/1
f 139/142/2 140/147/2 136/138/2
f 137/144/1 141/149/1 142/145/1
f 143/146/2 144/151/2 140/147/2
f 145/148/1 146/153/1 142/145/1
f 143/146/2 147/154/2 148/150/2
f 149/152/1 150/156/1 146/153/1
f 147/154/2 151/107/2 152/109/2
f 153/155/1 154/158/1 150/156/1
f 157/157/1 158/161/1 154/158/1
f 155/159/2 159/162/2 160/160/2
f 1/3/1 2/2/1 158/161/1
f 3/4/2 4/6/2 160/160/2
f 73/163/6 77/165/6 161/75/6
f 80/164/6 76/168/6 164/78/6
f 25/28/7 21/19/7 24/25/7
f 25/28/8 28/30/8 32/29/8
f 33/36/9 29/27/9 32/29/9
f 37/35/10 33/36/10 36/38/10
f 41/43/11 37/35/11 40/37/11
f 45/47/12 41/43/12 44/46/12
f 49/52/13 45/47/13 48/50/13
f 53/51/14 49/52/14 52/54/14
f 53/51/15 56/58/15 60/62/15
f 57/55/16 60/62/16 64/61/16
f 65/63/17 61/59/17 64/61/17
f 69/67/18 65/63/18 68/70/18
f 162/76/19 69/67/19 72/69/19
f 73/163/20 76/168/20 80/164/20
f 81/86/21 161/79/21 163/83/21
f 85/85/22 81/86/22 84/88/22
f 89/89/23 85/85/23 88/92/23
f 93/98/24 89/89/24 92/96/24
f 97/97/25 93/98/25 96/95/25
f 97/97/26 100/104/26 104/111/26
f 101/105/27 104/111/27 108/115/27
f 105/113/28 108/115/28 112/119/28
f 113/116/29 109/112/29 112/119/29
f 117/120/30 113/116/30 116/123/30
f 117/120/31 120/122/31 124/127/31
f 121/124/32 124/127/32 128/131/32
f 129/137/33 125/128/33 128/131/33
f 133/136/34 129/137/34 132/139/34
f 133/136/35 136/138/35 140/147/35
f 137/144/36 140/147/36 144/151/36
f 145/148/37 141/149/37 144/151/37
f 149/152/38 145/148/38 148/150/38
f 152/109/39 156/108/39 153/155/39
f 153/155/40 156/108/40 160/160/40
f 160/160/41 4/6/41 1/3/41
f 5/1/42 1/3/42 4/6/42
f 5/1/43 8/5/43 12/14/43
f 87/87/42 83/82/42 82/80/42
f 83/82/41 79/84/41 78/81/41
f 75/73/40 74/71/40 78/81/40
f 75/73/39 71/74/39 70/72/39
f 71/74/38 67/65/38 66/68/38
f 67/65/37 63/66/37 62/64/37
f 59/57/36 58/60/36 62/64/36
f 59/57/35 55/53/35 54/56/35
f 87/87/43 86/90/43 90/94/43
f 91/91/5 90/94/5 94/93/5
f 95/100/4 94/93/4 98/102/4
f 103/103/3 99/99/3 98/102/3
f 103/103/7 102/101/7 106/106/7
f 107/110/8 106/106/8 110/117/8
f 111/114/9 110/117/9 114/121/9
f 119/126/10 115/118/10 114/121/10
f 119/126/11 118/125/11 122/129/11
f 123/130/12 122/129/12 126/133/12
f 127/135/13 126/133/13 130/132/13
f 135/143/14 131/134/14 130/132/14
f 139/142/15 135/143/15 134/141/15
f 139/142/16 138/140/16 142/145/16
f 147/154/17 143/146/17 142/145/17
f 151/107/18 147/154/18 146/153/18
f 154/158/19 155/159/19 151/107/19
f 55/53/34 51/49/34 50/48/34
f 51/49/33 47/45/33 46/44/33
f 43/41/32 42/39/32 46/44/32
f 39/42/31 38/40/31 42/39/31
f 35/33/30 34/31/30 38/40/30
f 35/33/29 31/34/29 30/32/29
f 27/26/28 26/23/28 30/32/28
f 23/21/27 22/24/27 26/23/27
f 23/21/26 19/17/26 18/20/26
f 19/17/25 15/13/25 14/16/25
f 11/9/24 10/7/24 14/16/24
f 7/10/23 6/8/23 10/7/23
f 3/4/22 2/2/22 6/8/22
f 158/161/21 2/2/21 3/4/21
f 155/159/20 154/158/20 158/161/20
