# Blender v2.67 (sub 0) OBJ File: 'fern.blend'
# www.blender.org
o Plane
v -1.668906 1.421207 -4.981303
v 1.291248 1.274556 -4.874573
v -1.681098 2.133895 -4.624559
v 1.441855 2.133895 -4.624559
v -1.716799 2.696792 -3.607163
v 1.406155 2.587040 -3.607163
v -1.561477 2.636679 -1.975693
v 1.561477 2.470482 -1.975693
v -1.347036 1.668626 -1.121537
v 1.561477 1.857010 -0.942828
v -1.561477 -0.004097 -0.036216
v 1.561477 -0.004097 -0.036216
v 4.922924 2.330723 -2.113493
v 4.930951 2.184072 0.848574
v 4.372616 2.743763 -2.092158
v 4.493601 2.743764 1.028451
v 3.455437 2.912039 -2.056599
v 3.576422 2.802288 1.064010
v 1.942091 2.636679 -1.997928
v 2.063076 2.470482 1.122681
v 1.096885 1.668625 -1.750557
v 1.030987 1.857010 1.162695
v 0.004071 -0.004097 -1.922791
v 0.125055 -0.004097 1.197818
v 5.066892 1.391006 0.895784
v 3.068532 1.226996 3.537834
v 4.896961 2.123907 0.870659
v 2.891804 2.123907 3.730312
v 4.156424 2.763720 0.489422
v 2.151268 2.640977 3.349074
v 2.614438 2.708673 -0.523145
v 0.609281 2.522805 2.336507
v 1.694611 1.626036 -0.875212
v -0.336501 1.836719 1.673335
v 0.838482 -0.244677 -1.768426
v -1.166676 -0.244677 1.091226
v 1.019397 2.313956 4.808662
v -1.755515 2.175439 4.451704
v 1.067131 2.704086 4.290682
v -1.870153 2.704086 4.020000
v 1.146687 2.863028 3.427385
v -1.790596 2.759363 3.156702
v 1.277956 2.602941 2.002943
v -1.659327 2.445963 1.732260
v 1.150299 1.688583 1.180983
v -1.569803 1.866519 0.760803
v 1.446060 0.108644 0.178775
v -1.491222 0.108645 -0.091908
v -2.841108 2.359943 5.062696
v -4.854967 2.199116 2.513874
v -2.381020 2.812909 4.671439
v -4.599705 2.812910 2.062436
v -1.614207 2.997452 4.019345
v -3.832892 2.877091 1.410342
v -0.348966 2.695474 2.943390
v -2.567650 2.513212 0.334387
v 0.212271 1.633845 2.157409
v -1.704767 1.840439 -0.399406
v 1.271327 -0.200569 1.565499
v -0.947357 -0.200569 -1.043504
v -6.274055 1.495219 2.121059
v -6.142600 1.319109 -1.433610
v -5.544260 2.263995 1.986592
v -5.540795 2.263996 -1.763698
v -4.359546 2.953154 1.726256
v -4.356080 2.821356 -2.024032
v -2.407223 2.758862 1.710761
v -2.403757 2.559280 -2.039528
v -1.381247 1.596347 1.454191
v -1.163412 1.822574 -2.038382
v -0.078146 -0.412391 1.712912
v -0.074680 -0.412391 -2.037376
v -5.393490 2.359763 -2.091071
v -3.270963 2.199023 -4.547807
v -4.922800 2.812483 -1.713156
v -2.779778 2.812484 -4.382275
v -4.138320 2.996925 -1.083301
v -1.995298 2.876630 -3.752418
v -2.843926 2.695112 -0.044037
v -0.700904 2.512949 -2.713154
v -1.966746 1.634059 0.358820
v 0.181862 1.840542 -2.004385
v -1.186299 -0.199359 1.286863
v 0.956723 -0.199359 -1.382254
v -3.411818 3.548868 0.997281
v -2.987591 3.599077 -1.523562
v -2.848599 3.707952 1.095761
v -2.444523 3.919941 -1.557639
v -2.065775 3.556531 1.202876
v -1.694590 3.680621 -1.462553
v -0.939843 2.863784 1.318995
v -0.585573 2.942669 -1.352623
v -0.520648 1.836716 1.113190
v 0.054735 2.129301 -1.320096
v -0.183668 0.144097 1.216864
v 0.220408 0.356086 -1.436535
v -2.752246 3.548868 -2.331894
v -0.428357 3.599077 -3.396862
v -2.517365 3.707952 -1.810603
v -0.095124 3.919941 -2.966700
v -2.166277 3.556531 -1.102773
v 0.247442 3.680621 -2.292838
v -1.629914 2.863784 -0.106017
v 0.779423 2.942669 -1.313553
v -1.224182 1.836715 0.125201
v 1.112171 2.129301 -0.765528
v -1.120676 0.144097 0.462233
v 1.301564 0.356086 -0.693862
v 1.179569 3.548868 -3.299581
v 3.068619 3.599077 -1.577340
v 0.791671 3.707952 -2.879523
v 2.803056 3.919941 -1.102408
v 0.345733 3.637383 -2.162762
v 2.385048 3.761473 -0.406775
v -0.430031 2.863784 -1.396071
v 1.623650 2.942669 0.349049
v -0.484141 1.836715 -0.932226
v 1.249424 2.129301 0.869633
v -0.753842 0.144098 -0.705146
v 1.257542 0.356086 1.071969
v 3.478751 3.063767 0.129736
v 2.508179 3.113976 2.494606
v 2.969543 3.472751 -0.191974
v 1.989343 3.684741 2.306629
v 2.194941 3.556531 -0.538472
v 1.244161 3.680621 1.979129
v 1.122468 2.863784 -0.900428
v 0.186821 2.942669 1.626945
v 0.668168 1.836715 -0.792301
v -0.430486 2.129301 1.453785
v 0.362412 0.144098 -0.967850
v -0.617787 0.356086 1.530752
v 1.723514 3.227772 2.919589
v -0.813319 3.277982 3.234388
v 1.606172 3.518214 2.393483
v -1.051909 3.730203 2.765519
v 1.425735 3.556531 1.529277
v -1.234463 3.680621 1.936269
v 1.214835 2.863784 0.417193
v -1.446452 2.942669 0.842165
v 0.897690 1.836715 0.074411
v -1.598496 2.129301 0.219321
v 0.900611 0.144098 -0.278144
v -1.757470 0.356086 0.093891
vt 0.261788 0.894097
vt 0.741905 0.894097
vt 0.261788 0.999931
vt 0.261788 0.750634
vt 0.741905 0.750634
vt 0.261788 0.513983
vt 0.741905 0.513983
vt 0.261788 0.307545
vt 0.741905 0.307545
vt 0.261788 0.000069
vt 0.741905 0.000069
vt 0.741905 0.999931
vn 0.012848 0.702567 -0.711478
vn 0.020722 0.682089 -0.730949
vn 0.008454 0.417798 -0.908475
vn 0.034089 0.970763 -0.237495
vn 0.028413 0.982147 -0.185919
vn -0.002197 0.931425 0.363872
vn 0.050600 0.950804 0.305551
vn -0.060060 0.579974 0.812403
vn -0.036378 0.647877 0.760857
vn 0.000000 0.544298 0.838862
vn -0.051668 0.478774 0.876400
vn 0.409406 0.911954 0.025819
vn 0.432630 0.901395 -0.016755
vn 0.762535 0.646565 -0.021699
vn -0.002838 0.999115 0.041627
vn -0.064425 0.997650 0.023103
vn -0.440352 0.897580 0.020173
vn -0.361736 0.930509 0.057314
vn -0.797571 0.600513 -0.056856
vn -0.745903 0.665731 0.019196
vn -0.861782 0.506851 -0.018891
vn -0.898312 0.437910 0.034822
vn 0.698874 0.494675 0.516556
vn 0.674551 0.550340 0.491989
vn 0.814081 0.058443 0.577746
vn 0.238380 0.950316 0.200171
vn 0.172155 0.971587 0.162389
vn -0.299814 0.931639 -0.205206
vn -0.266366 0.954711 -0.132359
vn -0.600360 0.600513 -0.528123
vn -0.605304 0.665731 -0.436293
vn -0.674459 0.506851 -0.536790
vn -0.736076 0.437910 -0.516129
vn -0.036775 0.916135 0.399121
vn -0.080782 0.901364 0.425428
vn -0.066225 0.776391 0.626728
vn -0.025605 0.999512 -0.017548
vn -0.027863 0.996460 -0.078982
vn -0.003967 0.883175 -0.468978
vn 0.045595 0.915891 -0.398785
vn 0.083438 0.617115 -0.782434
vn 0.155522 0.675375 -0.720847
vn 0.076968 0.544298 -0.835322
vn 0.131870 0.478774 -0.867946
vn -0.305338 0.916135 0.259651
vn -0.355174 0.901364 0.247688
vn -0.485519 0.776391 0.401807
vn -0.005890 0.999725 -0.022248
vn 0.027192 0.996612 -0.077395
vn 0.333567 0.880856 -0.335856
vn 0.311014 0.913816 -0.261086
vn 0.606677 0.617115 -0.501083
vn 0.615162 0.675375 -0.406659
vn 0.639058 0.544298 -0.543443
vn 0.701102 0.478774 -0.528367
vn -0.626392 0.779382 -0.011170
vn -0.616840 0.786798 -0.020203
vn -0.752464 0.658498 -0.011689
vn -0.232734 0.971923 -0.034364
vn -0.149419 0.988311 -0.029939
vn 0.432173 0.900845 -0.040376
vn 0.368816 0.929472 0.002625
vn 0.786767 0.617115 0.011994
vn 0.731986 0.675375 0.089389
vn 0.838862 0.544298 0.000763
vn 0.876339 0.478774 0.052461
vn -0.312540 0.916135 -0.250923
vn -0.310190 0.901364 -0.302133
vn -0.486099 0.776391 -0.401105
vn 0.020722 0.999725 -0.009980
vn 0.081118 0.996612 0.012116
vn 0.392682 0.880856 0.264290
vn 0.315012 0.913816 0.256233
vn 0.606433 0.617115 0.501389
vn 0.515305 0.675375 0.527512
vn 0.654134 0.544298 0.525193
vn 0.651021 0.478774 0.588977
vn -0.039766 0.997467 0.058840
vn -0.070223 0.996551 0.043672
vn -0.312082 0.949828 0.019776
vn 0.351970 0.931425 0.092380
vn 0.406476 0.907346 0.107028
vn 0.748741 0.650807 0.125645
vn 0.693106 0.701834 0.164220
vn 0.941008 0.287820 0.177740
vn 0.899045 0.355663 0.255348
vn 0.965636 0.202216 0.163182
vn 0.969817 0.123722 0.209998
vn -0.071017 0.997467 0.000122
vn -0.075594 0.996551 -0.033570
vn -0.191656 0.949828 -0.247078
vn 0.121281 0.931425 0.343089
vn 0.139744 0.907346 0.396405
vn 0.316568 0.650807 0.690054
vn 0.253426 0.701834 0.665700
vn 0.381481 0.287820 0.878384
vn 0.293710 0.355663 0.887234
vn 0.407361 0.202216 0.890561
vn 0.370983 0.123722 0.920347
vn 0.044221 0.993347 -0.106052
vn 0.014801 0.990722 -0.134922
vn 0.269295 0.877132 -0.397565
vn -0.255837 0.938749 0.230781
vn -0.302591 0.912412 0.275491
vn -0.551134 0.636799 0.539171
vn -0.469649 0.713095 0.520463
vn -0.716178 0.263527 0.646229
vn -0.648152 0.347850 0.677389
vn -0.701132 0.155553 0.695822
vn -0.664724 0.081668 0.742607
vn 0.327616 0.942656 0.063509
vn 0.362804 0.927641 0.088351
vn 0.580432 0.796350 0.169958
vn -0.204443 0.971740 -0.117893
vn -0.237220 0.959471 -0.151952
vn -0.667226 0.674642 -0.315622
vn -0.624378 0.736290 -0.260781
vn -0.852535 0.263527 -0.451338
vn -0.858486 0.347850 -0.376751
vn -0.893948 0.155553 -0.420240
vn -0.925413 0.081668 -0.369976
vn 0.088076 0.954680 0.284280
vn 0.097964 0.957030 0.272896
vn 0.140873 0.767968 0.624775
vn 0.011750 0.963805 -0.266305
vn -0.005890 0.945097 -0.326640
vn -0.052400 0.674642 -0.736229
vn -0.079134 0.736290 -0.672018
vn -0.025086 0.263527 -0.964324
vn -0.092990 0.347850 -0.932920
vn -0.072512 0.155553 -0.985137
vn -0.131748 0.081668 -0.987884
vn 0.048097 0.271249 -0.961303
vn 0.600787 0.798486 0.037904
vn 0.775353 0.200293 0.598895
vn -0.130985 0.609851 0.781579
vn -0.640095 0.609851 0.467238
vn -0.851009 0.521989 -0.057314
vn -0.579485 0.609851 -0.540574
vn -0.510666 0.856990 -0.068850
vn -0.229835 0.856990 -0.461165
vn 0.166631 0.963195 -0.210852
vn 0.670217 0.694968 0.260292
vn 0.075594 0.879971 0.468917
s 1
f 3/1/1 4/2/2 1/3/3
f 5/4/4 6/5/5 3/1/1
f 7/6/6 8/7/7 6/5/5
f 9/8/8 10/9/9 7/6/6
f 11/10/10 12/11/11 9/8/8
f 15/1/12 16/2/13 14/12/14
f 17/4/15 18/5/16 15/1/12
f 19/6/17 20/7/18 17/4/15
f 21/8/19 22/9/20 19/6/17
f 23/10/21 24/11/22 22/9/20
f 27/1/23 28/2/24 26/12/25
f 29/4/26 30/5/27 28/2/24
f 31/6/28 32/7/29 29/4/26
f 33/8/30 34/9/31 31/6/28
f 35/10/32 36/11/33 34/9/31
f 39/1/34 40/2/35 37/3/36
f 41/4/37 42/5/38 40/2/35
f 43/6/39 44/7/40 41/4/37
f 45/8/41 46/9/42 44/7/40
f 47/10/43 48/11/44 45/8/41
f 51/1/45 52/2/46 49/3/47
f 53/4/48 54/5/49 52/2/46
f 55/6/50 56/7/51 54/5/49
f 57/8/52 58/9/53 56/7/51
f 59/10/54 60/11/55 57/8/52
f 63/1/56 64/2/57 61/3/58
f 65/4/59 66/5/60 63/1/56
f 67/6/61 68/7/62 66/5/60
f 69/8/63 70/9/64 68/7/62
f 71/10/65 72/11/66 69/8/63
f 75/1/67 76/2/68 73/3/69
f 77/4/70 78/5/71 76/2/68
f 79/6/72 80/7/73 78/5/71
f 81/8/74 82/9/75 80/7/73
f 83/10/76 84/11/77 81/8/74
f 87/1/78 88/2/79 85/3/80
f 89/4/81 90/5/82 87/1/78
f 91/6/83 92/7/84 90/5/82
f 93/8/85 94/9/86 92/7/84
f 95/10/87 96/11/88 93/8/85
f 99/1/89 100/2/90 97/3/91
f 101/4/92 102/5/93 99/1/89
f 103/6/94 104/7/95 102/5/93
f 105/8/96 106/9/97 104/7/95
f 107/10/98 108/11/99 105/8/96
f 111/1/100 112/2/101 110/12/102
f 113/4/103 114/5/104 111/1/100
f 115/6/105 116/7/106 114/5/104
f 117/8/107 118/9/108 115/6/105
f 119/10/109 120/11/110 118/9/108
f 123/1/111 124/2/112 121/3/113
f 125/4/114 126/5/115 123/1/111
f 127/6/116 128/7/117 125/4/114
f 129/8/118 130/9/119 127/6/116
f 131/10/120 132/11/121 130/9/119
f 135/1/122 136/2/123 134/12/124
f 137/4/125 138/5/126 136/2/123
f 139/6/127 140/7/128 137/4/125
f 141/8/129 142/9/130 139/6/127
f 143/10/131 144/11/132 142/9/130
f 4/2/2 2/12/133 1/3/3
f 6/5/5 4/2/2 3/1/1
f 5/4/4 7/6/6 6/5/5
f 10/9/9 8/7/7 7/6/6
f 12/11/11 10/9/9 9/8/8
f 13/3/134 15/1/12 14/12/14
f 18/5/16 16/2/13 15/1/12
f 20/7/18 18/5/16 17/4/15
f 22/9/20 20/7/18 19/6/17
f 21/8/19 23/10/21 22/9/20
f 25/3/135 27/1/23 26/12/25
f 27/1/23 29/4/26 28/2/24
f 32/7/29 30/5/27 29/4/26
f 34/9/31 32/7/29 31/6/28
f 33/8/30 35/10/32 34/9/31
f 40/2/35 38/12/136 37/3/36
f 39/1/34 41/4/37 40/2/35
f 44/7/40 42/5/38 41/4/37
f 43/6/39 45/8/41 44/7/40
f 48/11/44 46/9/42 45/8/41
f 52/2/46 50/12/137 49/3/47
f 51/1/45 53/4/48 52/2/46
f 53/4/48 55/6/50 54/5/49
f 55/6/50 57/8/52 56/7/51
f 60/11/55 58/9/53 57/8/52
f 64/2/57 62/12/138 61/3/58
f 66/5/60 64/2/57 63/1/56
f 65/4/59 67/6/61 66/5/60
f 67/6/61 69/8/63 68/7/62
f 72/11/66 70/9/64 69/8/63
f 76/2/68 74/12/139 73/3/69
f 75/1/67 77/4/70 76/2/68
f 77/4/70 79/6/72 78/5/71
f 79/6/72 81/8/74 80/7/73
f 84/11/77 82/9/75 81/8/74
f 88/2/79 86/12/140 85/3/80
f 90/5/82 88/2/79 87/1/78
f 89/4/81 91/6/83 90/5/82
f 91/6/83 93/8/85 92/7/84
f 96/11/88 94/9/86 93/8/85
f 100/2/90 98/12/141 97/3/91
f 102/5/93 100/2/90 99/1/89
f 101/4/92 103/6/94 102/5/93
f 103/6/94 105/8/96 104/7/95
f 108/11/99 106/9/97 105/8/96
f 109/3/142 111/1/100 110/12/102
f 114/5/104 112/2/101 111/1/100
f 113/4/103 115/6/105 114/5/104
f 118/9/108 116/7/106 115/6/105
f 117/8/107 119/10/109 118/9/108
f 124/2/112 122/12/143 121/3/113
f 126/5/115 124/2/112 123/1/111
f 128/7/117 126/5/115 125/4/114
f 130/9/119 128/7/117 127/6/116
f 129/8/118 131/10/120 130/9/119
f 133/3/144 135/1/122 134/12/124
f 135/1/122 137/4/125 136/2/123
f 140/7/128 138/5/126 137/4/125
f 142/9/130 140/7/128 139/6/127
f 141/8/129 143/10/131 142/9/130
