# Blender v2.67 (sub 0) OBJ File: 'lowPolyPlants.blend'
# www.blender.org
o Plane
v 0.063088 0.003610 -4.997082
v -1.136912 0.003610 -4.997082
v 0.063088 1.203610 -4.997082
v -1.136912 1.203610 -4.997082
v -0.536911 0.003610 -5.597082
v -0.536912 0.003610 -4.397082
v -0.536912 1.203610 -5.597083
v -0.536912 1.203610 -4.397082
v -5.427285 0.003610 -0.769423
v -6.627285 0.003610 -0.769423
v -5.427285 1.203610 -0.769424
v -6.627285 1.203610 -0.769424
v -6.027285 0.003610 -1.369424
v -6.027285 0.003610 -0.169423
v -6.027285 1.203610 -1.369424
v -6.027285 1.203610 -0.169424
v 0.627331 0.003610 1.154491
v 0.120805 0.003610 0.066634
v 0.627331 1.203610 1.154491
v 0.120805 1.203610 0.066634
v 0.917996 0.003610 0.357300
v -0.169860 0.003611 0.863825
v 0.917996 1.203610 0.357300
v -0.169860 1.203610 0.863825
v 2.736700 0.003610 -2.973755
v 1.939363 0.003610 -3.870557
v 2.736700 1.203610 -2.973755
v 1.939363 1.203610 -3.870557
v 2.786432 0.003610 -3.820825
v 1.889630 0.003610 -3.023487
v 2.786432 1.203610 -3.820825
v 1.889630 1.203610 -3.023487
v -2.374338 0.003610 -1.890785
v -3.247929 0.003610 -2.713487
v -2.374338 1.203610 -1.890785
v -3.247929 1.203610 -2.713487
v -2.399782 0.003610 -2.738931
v -3.222484 0.003611 -1.865341
v -2.399782 1.203610 -2.738931
v -3.222484 1.203610 -1.865341
v 6.729870 0.003610 2.758007
v 7.206303 0.003610 1.656639
v 6.729870 1.203610 2.758007
v 7.206303 1.203610 1.656640
v 7.518770 0.003610 2.445540
v 6.417403 0.003611 1.969108
v 7.518770 1.203610 2.445540
v 6.417403 1.203610 1.969108
v -2.949056 0.003611 6.270791
v -2.019891 0.003611 5.511415
v -2.949056 1.203610 6.270791
v -2.019891 1.203610 5.511416
v -2.104786 0.003610 6.355686
v -2.864161 0.003611 5.426521
v -2.104786 1.203610 6.355686
v -2.864161 1.203610 5.426521
v -11.257655 0.003611 -0.649311
v -12.123328 0.003610 0.181718
v -11.257655 1.203610 -0.649312
v -12.123328 1.203610 0.181718
v -12.106008 0.003611 -0.666633
v -11.274976 0.003610 0.199040
v -12.106008 1.203610 -0.666633
v -11.274976 1.203610 0.199040
v -5.115887 0.003611 6.717537
v -5.981559 0.003611 7.548567
v -5.115886 1.203610 6.717537
v -5.981559 1.203610 7.548567
v -5.964238 0.003611 6.700215
v -5.133207 0.003611 7.565888
v -5.964237 1.203610 6.700215
v -5.133207 1.203610 7.565887
v -4.044483 0.003611 4.351145
v -5.163255 0.003611 3.917153
v -4.044483 1.203610 4.351144
v -5.163255 1.203610 3.917153
v -4.386873 0.003611 3.574763
v -4.820865 0.003611 4.693535
v -4.386873 1.203610 3.574763
v -4.820865 1.203610 4.693534
v -5.924183 0.003610 -3.071747
v -6.925926 0.003611 -3.732436
v -5.924183 1.203610 -3.071747
v -6.925926 1.203610 -3.732436
v -6.094710 0.003611 -3.902963
v -6.755400 0.003611 -2.901220
v -6.094710 1.203610 -3.902963
v -6.755400 1.203610 -2.901221
v -7.753965 0.003611 1.248239
v -8.950217 0.003611 1.153468
v -7.753965 1.203610 1.248238
v -8.950217 1.203610 1.153467
v -8.304706 0.003611 0.602727
v -8.399476 0.003611 1.798979
v -8.304706 1.203610 0.602727
v -8.399476 1.203610 1.798979
v -1.912768 0.003610 0.464466
v -2.331797 0.003611 -0.659996
v -1.912768 1.203610 0.464466
v -2.331796 1.203610 -0.659996
v -1.560051 0.003611 -0.307279
v -2.684512 0.003611 0.111750
v -1.560051 1.203610 -0.307280
v -2.684513 1.203610 0.111750
v -4.742368 0.003611 1.656384
v -5.161397 0.003611 0.531922
v -4.742368 1.203610 1.656384
v -5.161397 1.203610 0.531922
v -4.389652 0.003611 0.884638
v -5.514113 0.003611 1.303667
v -4.389652 1.203610 0.884638
v -5.514114 1.203610 1.303667
v 4.391148 1.203610 0.926363
v 3.597642 1.203610 0.026169
v 4.391148 0.003611 0.926362
v 3.597642 0.003610 0.026169
v 3.544298 1.203610 0.873019
v 4.444492 1.203610 0.079513
v 3.544298 0.003610 0.873018
v 4.444492 0.003610 0.079513
v 4.806449 1.203610 3.812527
v 3.732761 1.203610 3.276623
v 4.806449 0.003611 3.812527
v 3.732761 0.003611 3.276624
v 4.001654 1.203610 4.081419
v 4.537557 1.203610 3.007731
v 4.001654 0.003611 4.081419
v 4.537557 0.003611 3.007731
v 6.609623 1.203610 -3.161592
v 7.186171 1.203610 -4.214014
v 6.609624 0.003611 -3.161592
v 7.186171 0.003610 -4.214014
v 6.371686 1.203610 -3.976077
v 7.424108 1.203610 -3.399530
v 6.371686 0.003611 -3.976076
v 7.424108 0.003610 -3.399530
v -0.487433 1.203610 1.980146
v -1.577091 1.203610 1.477509
v -0.487433 0.003611 1.980146
v -1.577091 0.003610 1.477509
v -1.283581 1.203610 2.273656
v -0.780943 1.203610 1.183998
v -1.283581 0.003610 2.273657
v -0.780943 0.003610 1.183998
v 10.179677 1.203610 0.517455
v 8.984852 1.203610 0.406136
v 10.179677 0.003611 0.517455
v 8.984852 0.003610 0.406136
v 9.526605 1.203610 1.059208
v 9.637924 1.203610 -0.135617
v 9.526605 0.003610 1.059208
v 9.637924 0.003610 -0.135617
v 5.869500 1.203610 5.422760
v 4.930470 1.203610 6.169901
v 5.869502 0.003611 5.422760
v 4.930470 0.003611 6.169903
v 5.773557 1.203610 6.265846
v 5.026414 1.203610 5.326817
v 5.773557 0.003611 6.265847
v 5.026415 0.003611 5.326817
v 0.637121 1.203610 -1.805795
v 1.213668 1.203610 -2.858217
v 0.637121 0.003611 -1.805795
v 1.213669 0.003611 -2.858217
v 0.399184 1.203610 -2.620279
v 1.451606 1.203610 -2.043732
v 0.399184 0.003611 -2.620279
v 1.451606 0.003611 -2.043732
v 1.740329 1.203610 -0.516481
v 1.336903 1.203610 -1.646635
v 1.740329 0.003611 -0.516482
v 1.336903 0.003610 -1.646635
v 0.973539 1.203610 -0.879845
v 2.103693 1.203610 -1.283271
v 0.973540 0.003611 -0.879845
v 2.103693 0.003611 -1.283271
v 3.117721 1.203610 2.883694
v 2.804810 1.203610 1.725209
v 3.117721 0.003611 2.883693
v 2.804810 0.003611 1.725209
v 2.382023 1.203610 2.460907
v 3.540508 1.203610 2.147995
v 2.382023 0.003611 2.460907
v 3.540508 0.003611 2.147995
v 1.243791 1.203610 8.964542
v 0.077800 1.203610 9.248203
v 1.243791 0.003611 8.964540
v 0.077800 0.003611 9.248203
v 0.802626 1.203610 9.689367
v 0.518964 1.203610 8.523376
v 0.802626 0.003611 9.689367
v 0.518964 0.003611 8.523376
v 4.819168 1.203610 -1.187724
v 4.506256 1.203610 -2.346208
v 4.819168 0.003611 -1.187724
v 4.506257 0.003611 -2.346208
v 4.083470 1.203610 -1.610511
v 5.241954 1.203610 -1.923421
v 4.083470 0.003611 -1.610510
v 5.241954 0.003611 -1.923421
v 0.499905 1.203610 -8.019167
v -0.210803 1.203610 -8.986067
v 0.499905 0.003610 -8.019167
v -0.210803 0.003610 -8.986066
v -0.338899 1.203610 -8.147264
v 0.628001 1.203610 -8.857970
v -0.338898 0.003610 -8.147264
v 0.628001 0.003610 -8.857970
v -2.017782 1.203610 3.719780
v -2.953916 1.203610 2.969012
v -2.017782 0.003611 3.719780
v -2.953915 0.003611 2.969012
v -2.861232 1.203610 3.812463
v -2.110465 1.203610 2.876329
v -2.861232 0.003611 3.812463
v -2.110465 0.003611 2.876329
v 1.450961 1.203610 5.045464
v 0.268659 1.203610 4.840132
v 1.450961 0.003611 5.045464
v 0.268660 0.003611 4.840132
v 0.757144 1.203610 5.533949
v 0.962477 1.203610 4.351647
v 0.757144 0.003611 5.533949
v 0.962477 0.003611 4.351646
vt 0.000100 0.000100
vt 0.999900 0.000100
vt 0.999900 0.999900
vt 0.000100 0.999900
vn 0.000000 0.000000 1.000000
vn 1.000000 0.000000 0.000000
vn -0.906547 0.000000 0.422104
vn 0.422104 0.000000 0.906547
vn -0.747335 0.000000 0.664448
vn 0.664448 0.000000 0.747335
vn -0.685585 0.000000 0.727992
vn 0.727992 0.000000 0.685585
vn -0.917807 0.000001 -0.397027
vn -0.397027 0.000000 0.917807
vn -0.632813 0.000000 -0.774304
vn -0.774305 0.000000 0.632813
vn 0.692525 0.000000 0.721394
vn 0.721393 -0.000000 -0.692526
vn 0.721394 -0.000001 -0.692525
vn -0.361660 0.000000 0.932310
vn 0.932310 0.000000 0.361660
vn -0.550575 0.000000 0.834786
vn 0.834786 0.000000 0.550575
vn -0.078976 0.000000 0.996877
vn 0.996877 0.000000 0.078975
vn -0.937052 0.000000 0.349191
vn 0.349191 0.000001 0.937052
vn 0.349191 -0.000000 0.937052
vn 0.750161 0.000000 -0.661255
vn 0.661255 -0.000000 0.750162
vn 0.446586 -0.000000 -0.894741
vn 0.894741 -0.000000 0.446586
vn 0.877019 0.000000 0.480456
vn -0.480456 0.000001 0.877019
vn 0.418865 -0.000000 -0.908049
vn 0.908049 0.000000 0.418865
vn 0.092766 0.000000 -0.995688
vn 0.995688 0.000000 0.092766
vn -0.622618 -0.000001 -0.782526
vn 0.782526 0.000001 -0.622618
vn -0.480456 0.000000 0.877019
vn 0.941795 -0.000000 -0.336188
vn 0.336188 0.000000 0.941795
vn 0.965404 -0.000000 -0.260759
vn 0.260759 0.000000 0.965404
vn -0.236386 0.000001 -0.971659
vn 0.971659 -0.000000 -0.236386
vn 0.965404 0.000001 -0.260759
vn 0.260760 0.000000 0.965404
vn 0.805749 -0.000000 -0.592257
vn 0.592256 -0.000000 0.805750
vn 0.625641 0.000001 -0.780111
vn 0.780112 0.000000 0.625640
vn 0.171110 0.000000 -0.985252
vn 0.985252 0.000000 0.171111
vn 0.664448 0.000000 0.747334
vn -0.917807 -0.000000 -0.397028
vn -0.632813 -0.000000 -0.774305
vn -0.774304 0.000000 0.632813
vn 0.721394 -0.000000 -0.692525
vn -0.361659 0.000000 0.932310
vn 0.661254 -0.000000 0.750162
vn 0.877019 0.000001 0.480457
vn 0.092765 -0.000000 -0.995688
vn -0.622618 -0.000000 -0.782526
vn 0.782525 -0.000000 -0.622619
vn -0.236384 0.000000 -0.971660
vn 0.971659 0.000000 -0.236385
vn 0.965404 0.000000 -0.260760
vn 0.260759 0.000001 0.965404
vn 0.805750 0.000000 -0.592256
vn 0.625640 -0.000000 -0.780112
vn 0.780112 0.000000 0.625639
s off
f 2/1/1 1/2/1 3/3/1
f 6/1/2 5/2/2 7/3/2
f 10/1/1 9/2/1 11/3/1
f 14/1/2 13/2/2 15/3/2
f 18/1/3 17/2/3 20/4/3
f 22/1/4 21/2/4 23/3/4
f 26/1/5 25/2/5 28/4/5
f 30/1/6 29/2/6 31/3/6
f 34/1/7 33/2/7 36/4/7
f 38/1/8 37/2/8 39/3/8
f 42/1/9 41/2/9 44/4/9
f 46/1/10 45/2/10 48/4/10
f 50/1/11 49/2/11 52/4/11
f 54/1/12 53/2/12 56/4/12
f 58/1/13 57/2/13 59/3/13
f 62/1/14 61/2/14 63/3/14
f 66/1/13 65/2/13 67/3/13
f 70/1/15 69/2/15 71/3/15
f 74/1/16 73/2/16 76/4/16
f 78/1/17 77/2/17 79/3/17
f 82/1/18 81/2/18 84/4/18
f 86/1/19 85/2/19 87/3/19
f 90/1/20 89/2/20 92/4/20
f 94/1/21 93/2/21 95/3/21
f 98/1/22 97/2/22 100/4/22
f 102/1/23 101/2/23 103/3/23
f 106/1/22 105/2/22 108/4/22
f 110/1/24 109/2/24 111/3/24
f 115/1/25 116/2/25 114/3/25
f 119/1/26 120/2/26 118/3/26
f 123/1/27 124/2/27 122/3/27
f 127/1/28 128/2/28 126/3/28
f 131/1/29 132/2/29 130/3/29
f 135/1/30 136/2/30 133/4/30
f 139/1/31 140/2/31 138/3/31
f 143/1/32 144/2/32 142/3/32
f 147/1/33 148/2/33 146/3/33
f 151/1/34 152/2/34 150/3/34
f 155/1/35 156/2/35 153/4/35
f 159/1/36 160/2/36 158/3/36
f 163/1/29 164/2/29 162/3/29
f 167/1/37 168/2/37 165/4/37
f 171/1/38 172/2/38 170/3/38
f 175/1/39 176/2/39 174/3/39
f 179/1/40 180/2/40 178/3/40
f 183/1/41 184/2/41 182/3/41
f 187/1/42 188/2/42 185/4/42
f 191/1/43 192/2/43 190/3/43
f 195/1/44 196/2/44 194/3/44
f 199/1/45 200/2/45 198/3/45
f 203/1/46 204/2/46 202/3/46
f 207/1/47 208/2/47 206/3/47
f 211/1/48 212/2/48 210/3/48
f 215/1/49 216/2/49 214/3/49
f 219/1/50 220/2/50 218/3/50
f 223/1/51 224/2/51 222/3/51
f 4/4/1 2/1/1 3/3/1
f 8/4/2 6/1/2 7/3/2
f 12/4/1 10/1/1 11/3/1
f 16/4/2 14/1/2 15/3/2
f 17/2/3 19/3/3 20/4/3
f 24/4/4 22/1/4 23/3/4
f 25/2/5 27/3/5 28/4/5
f 32/4/52 30/1/52 31/3/52
f 33/2/7 35/3/7 36/4/7
f 40/4/8 38/1/8 39/3/8
f 41/2/53 43/3/53 44/4/53
f 45/2/10 47/3/10 48/4/10
f 49/2/54 51/3/54 52/4/54
f 53/2/55 55/3/55 56/4/55
f 60/4/13 58/1/13 59/3/13
f 64/4/14 62/1/14 63/3/14
f 68/4/13 66/1/13 67/3/13
f 72/4/56 70/1/56 71/3/56
f 73/2/57 75/3/57 76/4/57
f 80/4/17 78/1/17 79/3/17
f 81/2/18 83/3/18 84/4/18
f 88/4/19 86/1/19 87/3/19
f 89/2/20 91/3/20 92/4/20
f 96/4/21 94/1/21 95/3/21
f 97/2/22 99/3/22 100/4/22
f 104/4/24 102/1/24 103/3/24
f 105/2/22 107/3/22 108/4/22
f 112/4/24 110/1/24 111/3/24
f 113/4/25 115/1/25 114/3/25
f 117/4/58 119/1/58 118/3/58
f 121/4/27 123/1/27 122/3/27
f 125/4/28 127/1/28 126/3/28
f 129/4/59 131/1/59 130/3/59
f 136/2/37 134/3/37 133/4/37
f 137/4/31 139/1/31 138/3/31
f 141/4/32 143/1/32 142/3/32
f 145/4/60 147/1/60 146/3/60
f 149/4/34 151/1/34 150/3/34
f 156/2/61 154/3/61 153/4/61
f 157/4/62 159/1/62 158/3/62
f 161/4/29 163/1/29 162/3/29
f 168/2/37 166/3/37 165/4/37
f 169/4/38 171/1/38 170/3/38
f 173/4/39 175/1/39 174/3/39
f 177/4/40 179/1/40 178/3/40
f 181/4/45 183/1/45 182/3/45
f 188/2/63 186/3/63 185/4/63
f 189/4/64 191/1/64 190/3/64
f 193/4/65 195/1/65 194/3/65
f 197/4/66 199/1/66 198/3/66
f 201/4/67 203/1/67 202/3/67
f 205/4/47 207/1/47 206/3/47
f 209/4/68 211/1/68 210/3/68
f 213/4/69 215/1/69 214/3/69
f 217/4/50 219/1/50 218/3/50
f 221/4/51 223/1/51 222/3/51
